# xmcd
#
# Track frame offsets:
#	150
#	19502
#	38474
#	51376
#	72891
#	89188
#	101645
#	116334
#	135396
#	161276
#	178213
#	194660
#	210952
#	228106
#	240270
#	264552
#	280060
#	295722
#	317959
#
# Disc length: 4453 seconds
#
# Revision: 1
# Processed by: cddbd v1.5PL3 Copyright (c) Steve Scherf et al.
# Submitted via: CDex 1.50Beta5
#
DISCID=04116313
DTITLE=Ｏｍｎｉｂｕｓ - Ｆｉｎｅ
DYEAR=1900
DGENRE=Unclassifiable -> General Unclassifiable
TTITLE0=Call It LovePOCO.wav
TTITLE1=Dont Answer MeTHE Alan Parsons PROJECT.wav
TTITLE2=Everybodys TalkinNILSSON.wav
TTITLE3=Hold Me NowTHOMPSON TWINS.wav
TTITLE4=I Only Wnat To Be With YouBAY City ROLLERS.wav
TTITLE5=IrresistablementSYLVIE VARTAN.wav
TTITLE6=Jessies GirlRICK SPRINGFIELD.wav
TTITLE7=Karma ChameleonCULTURE CLUB.wav
TTITLE8=Making Love Out Of Nothing At AllAIR SUPPLY.wav
TTITLE9=Never Gonna Fall In Love AgainERIC CARMEN.wav
TTITLE10=PerfectFAIRGROUND ATTRACTION.wav
TTITLE11=Private EyesHALL&OATES.wav
TTITLE12=Take On Me A〜Ha.Wav
TTITLE13=The Lion Sleeps TonightTHE TOKENS.wav
TTITLE14=There Must Be An AngelEURYTHMICS.wav
TTITLE15=Tie A Yellow Robbon Round The Ole Oak TreeTONY ORLANDO&DAWN.wav
TTITLE16=Together ForeverRICK ASTLEY.wav
TTITLE17=We Built This CitySTARSHIP.wav
TTITLE18=Wham BamSILVER.wav
EXTD=
EXTT0=
EXTT1=
EXTT2=
EXTT3=
EXTT4=
EXTT5=
EXTT6=
EXTT7=
EXTT8=
EXTT9=
EXTT10=
EXTT11=
EXTT12=
EXTT13=
EXTT14=
EXTT15=
EXTT16=
EXTT17=
EXTT18=
PLAYORDER=
